<?xml version="1.0" encoding="UTF-8"?>
<svg xmlns="http://www.w3.org/2000/svg" version="1.1" width="680" height="150" viewBox="0 0 1360 300" style="background: transparent;">

<g id="color_1" fill="#E3EBEE" stroke="#E3EBEE" stroke-width="2.0" stroke-linejoin="round" vector-effect="non-scaling-stroke">
<path d="M1164.00,114.00 L1154.00,124.00 L1148.00,136.00 L1136.00,216.00 L1138.00,237.00 L1148.00,251.00 L1170.00,259.00 L1267.00,259.00 L1291.00,257.00 L1307.00,243.00 L1317.00,229.00 L1315.00,224.00 L1198.00,226.00 L1191.00,223.00 L1189.00,210.00 L1194.00,195.00 L1321.00,193.00 L1331.00,149.00 L1331.00,128.00 L1321.00,112.00 L1309.00,106.00 L1295.00,104.00 L1200.00,104.00 L1182.00,106.00 L1164.00,114.00 Z M1197.00,164.00 L1201.00,150.00 L1210.00,141.00 L1218.00,139.00 L1261.00,139.00 L1271.00,141.00 L1276.00,148.00 L1272.00,167.00 L1267.00,170.00 L1202.00,170.00 L1197.00,164.00 Z M948.00,106.00 L930.00,228.00 L930.00,259.00 L981.00,257.00 L991.00,209.00 L999.00,146.00 L1002.00,143.00 L1061.00,141.00 L1066.00,146.00 L1066.00,165.00 L1054.00,257.00 L1063.00,259.00 L1111.00,255.00 L1111.00,240.00 L1125.00,157.00 L1125.00,126.00 L1115.00,112.00 L1103.00,106.00 L1065.00,104.00 L1022.00,106.00 L1002.00,112.00 L999.00,106.00 L987.00,104.00 L948.00,106.00 Z M764.00,108.00 L756.00,138.00 L758.00,143.00 L853.00,141.00 L861.00,143.00 L866.00,148.00 L866.00,157.00 L861.00,164.00 L768.00,166.00 L746.00,174.00 L736.00,184.00 L728.00,204.00 L726.00,235.00 L732.00,249.00 L752.00,259.00 L827.00,259.00 L841.00,255.00 L854.00,247.00 L858.00,250.00 L860.00,259.00 L905.00,257.00 L915.00,170.00 L921.00,145.00 L921.00,130.00 L915.00,118.00 L901.00,108.00 L873.00,104.00 L764.00,108.00 Z M858.00,196.00 L856.00,213.00 L845.00,224.00 L790.00,226.00 L781.00,219.00 L783.00,204.00 L794.00,195.00 L855.00,193.00 L858.00,196.00 Z M520.00,32.00 L516.00,36.00 L484.00,257.00 L665.00,257.00 L697.00,243.00 L711.00,223.00 L717.00,195.00 L717.00,164.00 L709.00,150.00 L691.00,142.00 L715.00,129.00 L725.00,113.00 L731.00,83.00 L731.00,58.00 L727.00,48.00 L713.00,36.00 L687.00,32.00 L520.00,32.00 Z M543.00,215.00 L549.00,168.00 L552.00,165.00 L653.00,165.00 L662.00,176.00 L658.00,205.00 L647.00,214.00 L543.00,215.00 Z M561.00,121.00 L567.00,74.00 L572.00,71.00 L657.00,71.00 L665.00,73.00 L672.00,80.00 L670.00,109.00 L663.00,118.00 L655.00,122.00 L561.00,121.00 Z"/>
</g>
<g id="color_2" fill="#DB0917" stroke="#DB0917" stroke-width="2.0" stroke-linejoin="round" vector-effect="non-scaling-stroke">
<path d="M294.00,42.00 L280.00,58.00 L270.00,96.00 L268.00,137.00 L276.00,153.00 L288.00,161.00 L306.00,165.00 L405.00,165.00 L410.00,170.00 L406.00,203.00 L395.00,214.00 L260.00,214.00 L234.00,246.00 L230.00,257.00 L417.00,257.00 L443.00,245.00 L455.00,229.00 L465.00,187.00 L467.00,146.00 L461.00,134.00 L451.00,126.00 L433.00,122.00 L328.00,122.00 L323.00,115.00 L327.00,84.00 L338.00,75.00 L459.00,75.00 L483.00,57.00 L499.00,32.00 L318.00,32.00 L294.00,42.00 Z M40.00,32.00 L34.00,54.00 L10.00,206.00 L10.00,229.00 L18.00,245.00 L36.00,257.00 L48.00,259.00 L173.00,259.00 L189.00,257.00 L205.00,249.00 L219.00,233.00 L227.00,209.00 L257.00,32.00 L200.00,34.00 L174.00,189.00 L168.00,207.00 L157.00,216.00 L76.00,216.00 L67.00,209.00 L67.00,192.00 L95.00,34.00 L40.00,32.00 Z"/>
</g>
</svg>