<?xml version="1.0" encoding="UTF-8"?>
<!DOCTYPE svg PUBLIC "-//W3C//DTD SVG 1.1//EN" "http://www.w3.org/Graphics/SVG/1.1/DTD/svg11.dtd">
<!-- Creator: CorelDRAW 2020 (64-Bit) -->
<svg xmlns="http://www.w3.org/2000/svg" xml:space="preserve" width="500px" height="84px" version="1.1" style="shape-rendering:geometricPrecision; text-rendering:geometricPrecision; image-rendering:optimizeQuality; fill-rule:evenodd; clip-rule:evenodd"
viewBox="0 0 500 83.95"
 xmlns:xlink="http://www.w3.org/1999/xlink"
 xmlns:xodm="http://www.corel.com/coreldraw/odm/2003">
 <defs>
  <style type="text/css">
   <![CDATA[
    .fil0 {fill:black}
   ]]>
  </style>
 </defs>
 <g id="Ebene_x0020_1">
  <metadata id="CorelCorpID_0Corel-Layer"/>
  <g id="_2187416858144">
   <path class="fil0" d="M214.78 83.92l-66.73 0 0 -11.72 66.73 0 0 11.72zm-66.73 -83.92l66.73 0 0 11.22 -66.73 0 0 -11.22zm0 34.64l40.71 0 0 10.89 -40.71 0 0 -10.89z"/>
   <polygon class="fil0" points="0,34.64 40.71,34.64 40.71,45.53 0,45.53 "/>
   <polygon class="fil0" points="0.01,0 66.73,0 66.73,11.22 0.01,11.22 "/>
   <path class="fil0" d="M500 83.95l-20.69 0 -34.83 -38.39 -9.15 0 0 -10.89 33.18 0c3.37,0 8.83,-0.43 9.19,-5.17l0 -10.04c0,-3.23 -0.68,-5.46 -2.02,-6.7 -1.35,-1.24 -3.67,-1.51 -7.01,-1.51l-33.34 0 0 -11.22 38.8 0c6.03,-0.01 10.49,1.29 13.34,3.76 2.85,2.48 4.28,6.63 4.28,12.44l0 18.58c0,13.34 -16.16,10.85 -29.66,10.76l37.91 38.38z"/>
   <polygon class="fil0" points="350.94,83.92 336.81,83.92 336.81,45.53 296.1,45.53 296.1,34.64 336.81,34.64 336.81,0 350.94,0 "/>
  </g>
 </g>
</svg>
